<!-- <svg xmlns="http://www.w3.org/2000/svg" version="1.1" xmlns:xlink="http://www.w3.org/1999/xlink" xmlns:svgjs="http://svgjs.dev/svgjs" width="115" height="100" preserveAspectRatio="none" viewBox="0 0 115 100">
    <g mask="url(&quot;#SvgjsMask1109&quot;)" fill="none">
        <rect width="115" height="100" x="0" y="0" fill="rgba(203, 166, 221, 1)"></rect>
        <path d="M57.5 152.17C84.64 150.97 112.42 143.29 130.23 122.73 147.11 103.22 144.62 75.76 146 50 147.52 21.85 155.85-8.79 138.51-31.01 119.88-54.88 87.72-64.72 57.5-63.53 28.38-62.38 3.17-45.59-17.3-24.8-37.63-4.19-53.5 21.07-54.37 50-55.25 79.72-43.84 109.34-21.9 129.4-0.78 148.67 28.93 153.41 57.5 152.17" fill="rgba(203, 166, 221, 1)"></path>
        <path d="M57.5 125.51C77.56 124.63 98.1 118.95 111.25 103.75 123.73 89.34 121.9 69.04 122.92 50 124.04 29.19 130.19 6.55 117.37-9.87 103.6-27.52 79.84-34.8 57.5-33.91 35.98-33.06 17.35-20.65 2.22-5.28-12.81 9.95-24.54 28.61-25.19 50-25.83 71.96-17.4 93.86-1.18 108.68 14.42 122.93 36.39 126.43 57.5 125.51" fill="rgba(255, 220, 188, 1)"></path>
        <path d="M57.5 98.86C70.48 98.29 83.77 94.62 92.28 84.78 100.36 75.45 99.17 62.32 99.83 50 100.55 36.54 104.54 21.88 96.24 11.26 87.33-0.16 71.95-4.87 57.5-4.3 43.57-3.75 31.52 4.28 21.73 14.23 12 24.08 4.41 36.16 4 50 3.58 64.21 9.03 78.38 19.53 87.97 29.63 97.19 43.84 99.46 57.5 98.86" fill="rgba(203, 166, 221, 1)"></path>
        <path d="M57.5 72.21C63.4 71.95 69.44 70.28 73.31 65.81 76.98 61.57 76.44 55.6 76.74 50 77.07 43.88 78.88 37.22 75.11 32.39 71.06 27.2 64.07 25.06 57.5 25.32 51.17 25.57 45.69 29.22 41.24 33.74 36.82 38.22 33.37 43.71 33.18 50 32.99 56.46 35.47 62.9 40.24 67.26 44.83 71.45 51.29 72.48 57.5 72.21" fill="rgba(160, 210, 215, 1)"></path>
    </g>
    <defs>
        <mask id="SvgjsMask1109">
            <rect width="115" height="100" fill="#ffffff"></rect>
        </mask>
    </defs>
</svg> -->

<svg xmlns="http://www.w3.org/2000/svg" version="1.1" xmlns:xlink="http://www.w3.org/1999/xlink" xmlns:svgjs="http://svgjs.dev/svgjs" width="200" height="100" preserveAspectRatio="none" viewBox="0 0 200 100">
    <g mask="url(&quot;#SvgjsMask1040&quot;)" fill="none">
        <rect width="200" height="100" x="0" y="0" fill="#cba6dd"></rect>
        <path d="M 0,99 C 8,85 24,36.4 40,29 C 56,21.6 64,64.6 80,62 C 96,59.4 104,17.6 120,16 C 136,14.4 144,49.6 160,54 C 176,58.4 192,41.2 200,38L200 100L0 100z" fill="#aab8de"></path>
        <path d="M 0,6 C 8,21.6 24,78.2 40,84 C 56,89.8 64,32.8 80,35 C 96,37.2 104,100.8 120,95 C 136,89.2 144,12 160,6 C 176,0 192,53.2 200,65L200 100L0 100z" fill="#ffbfbc"></path>
    </g>
    <defs>
        <mask id="SvgjsMask1040">
            <rect width="200" height="100" fill="#ffffff"></rect>
        </mask>
    </defs>
</svg>